G04 #@! TF.FileFunction,Copper,L1,Top,Signal*
%FSLAX46Y46*%
G04 Gerber Fmt 4.6, Leading zero omitted, Abs format (unit mm)*
G04 Created by KiCad (PCBNEW 4.0.5) date Sun Feb 19 12:07:56 2017*
%MOMM*%
%LPD*%
G01*
G04 APERTURE LIST*
%ADD10C,0.100000*%
%ADD11C,1.700000*%
%ADD12R,1.800000X1.800000*%
%ADD13C,1.800000*%
%ADD14C,1.500000*%
%ADD15C,3.000000*%
%ADD16C,1.600000*%
%ADD17C,1.600000*%
%ADD18O,1.600000X1.600000*%
%ADD19C,0.914400*%
%ADD20C,0.600000*%
%ADD21C,0.508000*%
%ADD22C,0.250000*%
G04 APERTURE END LIST*
D10*
G36*
X101288878Y-67201122D02*
X100438878Y-65728878D01*
X101911122Y-64878878D01*
X102761122Y-66351122D01*
X101288878Y-67201122D01*
X101288878Y-67201122D01*
G37*
D11*
X102870000Y-68239705D02*
X102870000Y-68239705D01*
D12*
X81280000Y-138430000D03*
D13*
X83820000Y-138430000D03*
D12*
X116840000Y-60960000D03*
D13*
X119380000Y-60960000D03*
D12*
X81915000Y-74295000D03*
D13*
X84455000Y-74295000D03*
D12*
X97790000Y-59690000D03*
D13*
X100330000Y-59690000D03*
D12*
X139700000Y-67310000D03*
D13*
X142240000Y-67310000D03*
D12*
X99060000Y-148590000D03*
D13*
X101600000Y-148590000D03*
D12*
X132080000Y-105410000D03*
D13*
X129540000Y-105410000D03*
D14*
X123950000Y-129540000D03*
X121410000Y-129540000D03*
X119380000Y-129540000D03*
X116840000Y-129540000D03*
D15*
X127000000Y-132210000D03*
X113280000Y-132210000D03*
D10*
G36*
X128621455Y-73539556D02*
X127120444Y-72741455D01*
X127918545Y-71240444D01*
X129419556Y-72038545D01*
X128621455Y-73539556D01*
X128621455Y-73539556D01*
G37*
D11*
X130512687Y-73582458D02*
X130512687Y-73582458D01*
X132755374Y-74774916D02*
X132755374Y-74774916D01*
D16*
X60325000Y-125095000D03*
D17*
X69872277Y-121620075D02*
X69872277Y-121620075D01*
D16*
X61595000Y-128905000D03*
D17*
X71142277Y-125430075D02*
X71142277Y-125430075D01*
D16*
X127000000Y-114300000D03*
D18*
X137160000Y-114300000D03*
D16*
X127000000Y-121920000D03*
D18*
X137160000Y-121920000D03*
D16*
X137160000Y-118110000D03*
D18*
X127000000Y-118110000D03*
D16*
X67310000Y-81280000D03*
D17*
X72542787Y-89988820D02*
X72542787Y-89988820D01*
D16*
X127000000Y-125730000D03*
D18*
X137160000Y-125730000D03*
D19*
X96352880Y-115763276D03*
X86384796Y-92324808D03*
X99226562Y-85230406D03*
X100124588Y-86128431D03*
X101920639Y-87924482D03*
X101022614Y-87026457D03*
X104614716Y-90618559D03*
X105512742Y-91516585D03*
X103716690Y-89720534D03*
X102818665Y-88822508D03*
X108206819Y-94210662D03*
X109104844Y-95108687D03*
X106410767Y-92414610D03*
X107308793Y-93312636D03*
X87731835Y-107142231D03*
X86833809Y-106244205D03*
X90425911Y-109836307D03*
X91323937Y-110734333D03*
X89527886Y-108938282D03*
X88629860Y-108040256D03*
X83241707Y-102652102D03*
X84139732Y-103550128D03*
X85935783Y-105346179D03*
X85037758Y-104448154D03*
X81445655Y-100856051D03*
X82343681Y-101754077D03*
X80547630Y-99958026D03*
X97250906Y-114865251D03*
X98148932Y-113967225D03*
X99944983Y-112171174D03*
X99046957Y-113069200D03*
X102639060Y-109477097D03*
X103537085Y-108579071D03*
X101741034Y-110375123D03*
X100843008Y-111273148D03*
X108027213Y-104088943D03*
X108925239Y-103190918D03*
X106231162Y-105884995D03*
X107129188Y-104986969D03*
X105333137Y-106783020D03*
X104435111Y-107681046D03*
X94467027Y-84242577D03*
X87282822Y-91426782D03*
X88180847Y-90528757D03*
X89976899Y-88732705D03*
X89078873Y-89630731D03*
X92670975Y-86038629D03*
X93569001Y-85140603D03*
X91772950Y-86936654D03*
X90874924Y-87834680D03*
X82792694Y-95916910D03*
X83690719Y-95018885D03*
X85486771Y-93222834D03*
X84588745Y-94120859D03*
X80996642Y-97712962D03*
X81894668Y-96814936D03*
X79649604Y-99060000D03*
D20*
X91566100Y-114447700D03*
D21*
X139700000Y-67310000D02*
X138291700Y-67310000D01*
X128270000Y-72390000D02*
X129102800Y-70824000D01*
X123950000Y-132210000D02*
X123950000Y-129540000D01*
X123950000Y-132210000D02*
X127000000Y-132210000D01*
X99060000Y-148590000D02*
X97651700Y-148590000D01*
X100738900Y-64047200D02*
X100738900Y-64548500D01*
X97790000Y-61098300D02*
X100738900Y-64047200D01*
X97790000Y-59690000D02*
X97790000Y-61098300D01*
X101600000Y-66040000D02*
X100738900Y-64548500D01*
X100108600Y-66901200D02*
X100108500Y-66901100D01*
X100108600Y-68348300D02*
X100108600Y-66901200D01*
X92701100Y-75755800D02*
X100108600Y-68348300D01*
X83375800Y-75755800D02*
X92701100Y-75755800D01*
X81915000Y-74295000D02*
X83375800Y-75755800D01*
X101600000Y-66040000D02*
X100108500Y-66901100D01*
X97651700Y-148590000D02*
X97651700Y-140427100D01*
X83277100Y-140427100D02*
X81280000Y-138430000D01*
X97651700Y-140427100D02*
X83277100Y-140427100D01*
X113280000Y-132210000D02*
X123950000Y-132210000D01*
X105062900Y-140427100D02*
X97651700Y-140427100D01*
X113280000Y-132210000D02*
X105062900Y-140427100D01*
X132054800Y-67872000D02*
X129102800Y-70824000D01*
X137729700Y-67872000D02*
X132054800Y-67872000D01*
X138291700Y-67310000D02*
X137729700Y-67872000D01*
D22*
X61595000Y-115255500D02*
X61595000Y-128905000D01*
X111077500Y-65773000D02*
X61595000Y-115255500D01*
X114567000Y-65773000D02*
X111077500Y-65773000D01*
X119380000Y-60960000D02*
X114567000Y-65773000D01*
X130512700Y-73582500D02*
X129891000Y-74751600D01*
X92671000Y-84864100D02*
X92671000Y-86038600D01*
X102783500Y-74751600D02*
X92671000Y-84864100D01*
X129891000Y-74751600D02*
X102783500Y-74751600D01*
X132755400Y-74774900D02*
X132133700Y-75944100D01*
X94708200Y-85140600D02*
X93569000Y-85140600D01*
X103904700Y-75944100D02*
X94708200Y-85140600D01*
X132133700Y-75944100D02*
X103904700Y-75944100D01*
X69872300Y-121620100D02*
X71089200Y-121177200D01*
X71089200Y-121177300D02*
X71089200Y-121177200D01*
X80694300Y-111572200D02*
X71089200Y-121177300D01*
X91786600Y-111572200D02*
X80694300Y-111572200D01*
X97473800Y-105885000D02*
X91786600Y-111572200D01*
X106231200Y-105885000D02*
X97473800Y-105885000D01*
X71142300Y-125430100D02*
X72359200Y-124987200D01*
X72359200Y-124987300D02*
X72359200Y-124987200D01*
X85273800Y-112072700D02*
X72359200Y-124987300D01*
X91923000Y-112072700D02*
X85273800Y-112072700D01*
X96762400Y-107233300D02*
X91923000Y-112072700D01*
X97399200Y-107233300D02*
X96762400Y-107233300D01*
X97849500Y-106783000D02*
X97399200Y-107233300D01*
X105333100Y-106783000D02*
X97849500Y-106783000D01*
X137160000Y-114300000D02*
X136034700Y-114300000D01*
X129415700Y-107681000D02*
X104435100Y-107681000D01*
X136034700Y-114300000D02*
X129415700Y-107681000D01*
X137160000Y-121920000D02*
X136034700Y-121920000D01*
X122934600Y-108579100D02*
X103537100Y-108579100D01*
X136034700Y-121679200D02*
X122934600Y-108579100D01*
X136034700Y-121920000D02*
X136034700Y-121679200D01*
X127000000Y-118110000D02*
X125874700Y-118110000D01*
X117241800Y-109477100D02*
X102639100Y-109477100D01*
X125874700Y-118110000D02*
X117241800Y-109477100D01*
X94740700Y-111273100D02*
X91566100Y-114447700D01*
X100843000Y-111273100D02*
X94740700Y-111273100D01*
X137160000Y-125730000D02*
X136034700Y-125730000D01*
X129730600Y-119425900D02*
X136034700Y-125730000D01*
X107199700Y-119425900D02*
X129730600Y-119425900D01*
X99945000Y-112171200D02*
X107199700Y-119425900D01*
M02*
